<svg width="20" height="21" viewBox="0 0 20 21" fill="none" xmlns="http://www.w3.org/2000/svg">
<path d="M2.5 2.375H17.5C17.8315 2.375 18.1495 2.5067 18.3839 2.74112C18.6183 2.97554 18.75 3.29348 18.75 3.625V14.875C18.75 15.2065 18.6183 15.5245 18.3839 15.7589C18.1495 15.9933 17.8315 16.125 17.5 16.125H16.25V18C16.2497 18.1178 16.216 18.2331 16.153 18.3326C16.09 18.4322 16.0001 18.5118 15.8937 18.5625C15.8107 18.6051 15.7184 18.6265 15.625 18.625C15.484 18.6242 15.3475 18.5757 15.2375 18.4875L12.2812 16.125H2.5C2.16848 16.125 1.85054 15.9933 1.61612 15.7589C1.3817 15.5245 1.25 15.2065 1.25 14.875V3.625C1.25 3.29348 1.3817 2.97554 1.61612 2.74112C1.85054 2.5067 2.16848 2.375 2.5 2.375ZM7.5 9.875H9.375V11.75C9.375 11.9158 9.44085 12.0747 9.55806 12.1919C9.67527 12.3092 9.83424 12.375 10 12.375C10.1658 12.375 10.3247 12.3092 10.4419 12.1919C10.5592 12.0747 10.625 11.9158 10.625 11.75V9.875H12.5C12.6658 9.875 12.8247 9.80915 12.9419 9.69194C13.0592 9.57473 13.125 9.41576 13.125 9.25C13.125 9.08424 13.0592 8.92527 12.9419 8.80806C12.8247 8.69085 12.6658 8.625 12.5 8.625H10.625V6.75C10.625 6.58424 10.5592 6.42527 10.4419 6.30806C10.3247 6.19085 10.1658 6.125 10 6.125C9.83424 6.125 9.67527 6.19085 9.55806 6.30806C9.44085 6.42527 9.375 6.58424 9.375 6.75V8.625H7.5C7.33424 8.625 7.17527 8.69085 7.05806 8.80806C6.94085 8.92527 6.875 9.08424 6.875 9.25C6.875 9.41576 6.94085 9.57473 7.05806 9.69194C7.17527 9.80915 7.33424 9.875 7.5 9.875Z" fill="#A14CFF"/>
</svg>
