<svg width="129" height="128" viewBox="0 0 129 128" fill="none" xmlns="http://www.w3.org/2000/svg">
<circle cx="64.5" cy="64" r="62" fill="url(#paint0_linear_749_6967)" stroke="white" stroke-width="4"/>
<path d="M64.5027 64.4825C73.7452 64.4825 80.0289 56.9862 80.0289 47.7407C80.0289 38.4934 73.7452 31 64.5027 31C55.2544 31 48.9707 38.4934 48.9707 47.7407C48.9707 56.9862 55.2544 64.4825 64.5027 64.4825Z" fill="white"/>
<path d="M77.0409 63.3835C73.7257 66.3607 69.3857 68.1204 64.5005 68.1204C59.6134 68.1204 55.2705 66.3607 51.9553 63.3835C44.0699 67.6956 38.6261 75.8816 38.2139 85.4005C44.8828 92.2621 54.1985 96.5385 64.4986 96.5385C74.7987 96.5385 84.1144 92.2621 90.7853 85.4015C90.373 75.8816 84.9263 67.6956 77.0409 63.3835Z" fill="white"/>
<defs>
<linearGradient id="paint0_linear_749_6967" x1="0.495168" y1="63.9658" x2="128.5" y2="63.9658" gradientUnits="userSpaceOnUse">
<stop offset="0.28" stop-color="#B859DA"/>
<stop offset="1" stop-color="#6161EB"/>
</linearGradient>
</defs>
</svg>
