<svg width="39" height="28" viewBox="0 0 39 28" fill="none" xmlns="http://www.w3.org/2000/svg">
<path d="M33.7124 6.45233H14.9735C14.4251 6.45233 13.98 6.89749 13.98 7.44583C13.98 7.99418 14.4251 8.43934 14.9735 8.43934H33.7145C34.2628 8.43934 34.708 7.99418 34.708 7.44583C34.7059 6.89546 34.2608 6.45233 33.7124 6.45233Z" fill="#0169EF"/>
<path d="M27.414 10.6166H15.1297C14.5814 10.6166 14.1362 11.0617 14.1362 11.6101C14.1362 12.1584 14.5814 12.6036 15.1297 12.6036H27.416C27.9643 12.6036 28.4095 12.1584 28.4095 11.6101C28.4075 11.0617 27.9623 10.6166 27.414 10.6166Z" fill="#0169EF"/>
<path d="M35.3274 0.203979H13.359C11.4044 0.203979 9.814 1.79439 9.814 3.747V8.70439H2.99505C1.41476 8.70439 0.129883 9.98927 0.129883 11.5696V20.0518C0.129883 21.6321 1.41476 22.9169 2.99505 22.9169H4.71497V26.5085C4.71497 26.9112 4.95778 27.2734 5.32806 27.4251C5.45149 27.4757 5.57897 27.5 5.70847 27.5C5.96747 27.5 6.2204 27.3988 6.4106 27.2086L10.7043 22.9149H19.1177C20.698 22.9149 21.9829 21.63 21.9829 20.0497V18.8458H24.9715L30.9264 24.8008C31.1166 24.991 31.3696 25.0921 31.6286 25.0921C31.756 25.0921 31.8855 25.0678 32.009 25.0173C32.3792 24.8635 32.6221 24.5013 32.6221 24.0986V18.8458H35.3254C37.28 18.8458 38.8704 17.2554 38.8704 15.3028V3.74902C38.8704 1.79439 37.28 0.203979 35.3274 0.203979ZM19.9959 20.0538C19.9959 20.5394 19.6013 20.932 19.1177 20.932H10.2915C10.0285 20.932 9.77556 21.0372 9.5894 21.2233L6.69995 24.1128V21.9255C6.69995 21.3771 6.25479 20.932 5.70645 20.932H2.99505C2.50943 20.932 2.11689 20.5374 2.11689 20.0538V11.5716C2.11689 11.088 2.51146 10.6934 2.99505 10.6934H9.814V15.3068C9.814 17.2615 11.4044 18.8499 13.359 18.8499H19.9959V20.0538ZM36.8834 15.3048C36.8834 16.1627 36.1853 16.8628 35.3254 16.8628H31.6286C31.0802 16.8628 30.6351 17.308 30.6351 17.8563V21.7049L26.0844 17.1542C25.8982 16.9681 25.6453 16.8628 25.3822 16.8628H13.359C12.5011 16.8628 11.801 16.1648 11.801 15.3048V3.74902C11.801 2.89109 12.4991 2.19098 13.359 2.19098H35.3274C36.1853 2.19098 36.8854 2.88907 36.8854 3.74902L36.8834 15.3048Z" fill="#0169EF"/>
</svg>
