<svg width="170" height="35" viewBox="0 0 170 35" fill="none" xmlns="http://www.w3.org/2000/svg">
<path fill-rule="evenodd" clip-rule="evenodd" d="M31.0333 19.1486C31.8374 19.0476 32.4071 18.3144 32.3062 17.5087L32.3244 17.5457C32.4253 16.7399 31.8542 16.0054 31.0515 15.9057C30.2474 15.8046 29.5157 16.3755 29.4148 17.1812H24.0575V17.8731H29.3966C29.4975 18.6788 30.2306 19.2497 31.0333 19.1486ZM21.5259 13.0658C22.7023 14.2444 23.3629 15.8416 23.3629 17.5087C23.3629 19.1755 22.7023 20.7728 21.5259 21.9516C20.3508 23.1289 18.7554 23.7909 17.0932 23.7909C15.4297 23.7909 13.8356 23.1289 12.6593 21.9516C11.483 20.773 10.8223 19.1755 10.8223 17.5087C10.8223 15.8418 11.483 14.2445 12.6593 13.0658C13.8355 11.8884 15.4295 11.2265 17.0932 11.2265C18.7555 11.2265 20.351 11.8884 21.5259 13.0658ZM10.8521 11.2549C9.197 12.9134 8.26644 15.1626 8.26502 17.5087L8.26481 17.5083C8.26623 19.8575 9.19963 22.1095 10.859 23.768C12.5171 25.4279 14.7675 26.3575 17.1103 26.3532V33.7375C17.1103 33.8343 17.0719 33.9269 17.0037 33.9952C16.9355 34.0635 16.8432 34.102 16.7466 34.102H15.3756C14.9224 34.1034 14.5331 33.776 14.4564 33.329L14.0927 31.3573C14.0302 31.0042 13.7688 30.7195 13.4236 30.6284C12.3794 30.3337 11.3764 29.9137 10.433 29.3785C10.1219 29.2005 9.73401 29.219 9.43993 29.4254L7.79619 30.57C7.42394 30.8291 6.91961 30.7835 6.59995 30.4604L4.16346 28.0189C3.84096 27.6986 3.7955 27.1932 4.05406 26.8202L5.19913 25.1617C5.39377 24.877 5.41366 24.5069 5.25028 24.2037C4.72179 23.2584 4.30695 22.2548 4.01428 21.2113C3.92194 20.8653 3.6378 20.6048 3.28689 20.5408L1.31495 20.1763C0.868847 20.098 0.543506 19.7094 0.544927 19.2538V15.7988C0.543508 15.3446 0.868836 14.956 1.31495 14.8777L3.28263 14.5133C3.63498 14.4492 3.91768 14.1873 4.01003 13.8428C4.2984 12.7979 4.71469 11.7928 5.24744 10.8504C5.42645 10.5372 5.40798 10.1485 5.19914 9.85528L4.05832 8.19678C3.79834 7.82377 3.84522 7.3184 4.1663 6.99809H4.16772L6.60421 4.55663C6.92244 4.23347 7.42824 4.18792 7.80045 4.44701L9.44419 5.58021C9.73685 5.78948 10.1247 5.80798 10.4373 5.62719C11.3792 5.09762 12.3822 4.68193 13.4236 4.38867C13.7674 4.29614 14.0288 4.01141 14.0927 3.65979L14.4479 1.66961C14.526 1.22259 14.9153 0.896591 15.3685 0.898015H16.7295C16.8247 0.898015 16.9184 0.935028 16.9866 1.00479C17.0548 1.07312 17.0932 1.16565 17.0932 1.26246V8.66389C14.7521 8.66531 12.5072 9.59635 10.8521 11.2549ZM24.1925 9.55655H20.9945L19.5397 10.9816C19.3025 10.8919 19.0595 10.8136 18.8123 10.7481L20.591 8.98429C20.6564 8.90884 20.7501 8.86471 20.8496 8.86471H23.9183L24.6173 5.79542C23.9581 5.46655 23.6498 4.69641 23.897 4.00025C24.1441 3.30554 24.8715 2.9055 25.589 3.06922C26.3065 3.23292 26.7895 3.90772 26.7142 4.64229C26.6375 5.37544 26.0266 5.93633 25.2907 5.94914L24.5306 9.28749C24.4894 9.44124 24.3516 9.55086 24.1925 9.55655ZM24.5264 25.73L25.2865 29.0684L25.2836 29.0684C26.0196 29.0812 26.6305 29.6421 26.7072 30.3752C26.7825 31.1098 26.2994 31.7846 25.582 31.9483C24.8631 32.112 24.1371 31.7119 23.8899 31.0172C23.6427 30.3211 23.951 29.5509 24.6102 29.2221H24.6117L23.9127 26.1528H20.8468C20.7473 26.1528 20.6522 26.1087 20.5882 26.0332L18.8095 24.2694C19.0553 24.2039 19.2982 24.1256 19.5369 24.0359L20.9917 25.461H24.1883C24.3488 25.4667 24.4852 25.5763 24.5264 25.73ZM28.6576 23.9918C28.8495 23.9064 29.0554 23.8609 29.2657 23.8609L29.2656 23.8723C29.9419 23.8723 30.53 24.3421 30.6806 25.0026C30.8326 25.6646 30.5087 26.3422 29.9007 26.6397C29.2926 26.9373 28.5595 26.775 28.1333 26.2468C27.7071 25.7201 27.7 24.9685 28.1163 24.4332L26.3233 22.1412H22.3114C22.506 21.9205 22.6864 21.6899 22.8541 21.4479H26.4911C26.6019 21.4507 26.707 21.5048 26.7738 21.5945L28.6576 23.9918ZM22.2973 12.8762H26.3235L28.1165 10.5843C27.7045 10.0447 27.7202 9.29162 28.152 8.76915C28.5854 8.24528 29.3198 8.09153 29.9265 8.39618C30.5317 8.70224 30.8471 9.38557 30.6851 10.0461C30.5232 10.7052 29.9293 11.1665 29.2516 11.1565C29.0414 11.1565 28.8354 11.111 28.6436 11.0256L26.7597 13.4229C26.693 13.5126 26.5878 13.5667 26.4756 13.5695H22.8386C22.6724 13.3275 22.4905 13.0969 22.2973 12.8762ZM41.9847 24.6395C42.8023 25.1068 43.7514 25.3404 44.8318 25.3404H47.197C48.2629 25.3404 49.1973 25.1068 50.0003 24.6395C50.8179 24.1577 51.4457 23.4861 51.8838 22.6247C52.3364 21.7633 52.5627 20.7632 52.5627 19.6243H50.0441C50.0441 20.6464 49.7813 21.4786 49.2557 22.121C48.7301 22.7634 48.0439 23.0846 47.197 23.0846H44.8318C43.9704 23.0846 43.2769 22.7634 42.7512 22.121C42.2256 21.464 41.9628 20.5953 41.9628 19.5148V15.4851C41.9628 14.4193 42.2329 13.5579 42.7731 12.9009C43.3134 12.2439 44.0288 11.9154 44.9194 11.9154H47.2408C48.0585 11.9154 48.7228 12.2001 49.2338 12.7695C49.7448 13.3389 50.0003 14.0908 50.0003 15.0252H52.5189C52.5189 13.9594 52.2999 13.025 51.8619 12.222C51.4238 11.4044 50.8033 10.7765 50.0003 10.3385C49.1973 9.88592 48.2775 9.65961 47.2408 9.65961H44.9194C43.8244 9.65961 42.8607 9.90052 42.0285 10.3823C41.1963 10.8495 40.5466 11.5212 40.0794 12.3972C39.6268 13.2586 39.4005 14.2587 39.4005 15.3975V19.6024C39.4005 20.7413 39.6268 21.7487 40.0794 22.6247C40.532 23.4861 41.1671 24.1577 41.9847 24.6395ZM55.491 24.2234C56.1772 24.9681 57.0678 25.3404 58.1629 25.3404H59.6083C60.0755 25.3404 60.5646 25.1871 61.0756 24.8805C61.6012 24.5738 62.0246 24.1723 62.3459 23.6759V25.1652H64.7111V14.2368H62.1926V20.7413C62.0319 21.4567 61.7253 22.0407 61.2727 22.4933C60.8347 22.9313 60.3383 23.1503 59.7835 23.1503H58.4695C58.0315 23.1503 57.6738 22.9824 57.3963 22.6466C57.1335 22.3108 57.0021 21.8655 57.0021 21.3107V14.2368H54.4836V21.2669C54.4836 22.4787 54.8194 23.4642 55.491 24.2234ZM71.125 25.3404C69.8694 25.3404 68.862 25.0046 68.1028 24.3329C67.3436 23.6613 66.964 22.7707 66.964 21.6611H69.4387C69.4387 22.1283 69.592 22.5079 69.8986 22.7999C70.2052 23.0773 70.614 23.216 71.125 23.216H73.0742C73.5706 23.216 73.9575 23.1357 74.2349 22.9751C74.5269 22.7999 74.6729 22.5663 74.6729 22.2743V21.7925C74.6729 21.5881 74.5853 21.4129 74.4101 21.2669C74.2495 21.1209 74.0232 21.0187 73.7312 20.9603L69.9424 20.3033C69.0956 20.1572 68.424 19.8506 67.9276 19.3834C67.4312 18.9016 67.183 18.3468 67.183 17.719V16.9963C67.183 16.0911 67.5407 15.3756 68.2561 14.85C68.9861 14.3244 69.9862 14.0616 71.2564 14.0616H73.0085C74.1619 14.0616 75.0963 14.3755 75.8117 15.0033C76.5272 15.6311 76.8849 16.4561 76.8849 17.4781H74.4101C74.4101 17.0839 74.2787 16.77 74.0159 16.5364C73.7677 16.3028 73.4319 16.186 73.0085 16.186H71.2783C70.7673 16.186 70.3731 16.2663 70.0957 16.4269C69.8183 16.5875 69.6796 16.8138 69.6796 17.1058V17.5438C69.6796 17.7482 69.7599 17.9234 69.9205 18.0694C70.0957 18.2154 70.322 18.3103 70.5994 18.3541L74.5196 19.0549C75.3226 19.2155 75.965 19.5221 76.4469 19.9747C76.9287 20.4274 77.1696 20.9603 77.1696 21.5735V22.3838C77.1696 23.289 76.7973 24.0117 76.0527 24.5519C75.308 25.0776 74.3152 25.3404 73.0742 25.3404H71.125ZM81.0942 24.3329C81.6636 24.8878 82.5688 25.1652 83.8099 25.1652H85.6057V22.997H83.9413C83.5325 22.997 83.2332 22.8875 83.0434 22.6685C82.8536 22.4495 82.7587 22.0991 82.7587 21.6173V16.405H85.6057V14.2368H82.7587V10.9298H80.3058V14.2368H78.3129V16.405H80.2401V21.7049C80.2401 22.9021 80.5248 23.7781 81.0942 24.3329ZM91.6665 25.3404C90.3233 25.3404 89.2429 24.9535 88.4252 24.1796C87.6076 23.3912 87.1988 22.3546 87.1988 21.0698V18.3541C87.1988 17.5073 87.3813 16.7627 87.7463 16.1203C88.1259 15.4632 88.6515 14.9595 89.3232 14.6091C90.0094 14.2441 90.7978 14.0616 91.6884 14.0616H93.6156C94.5063 14.0616 95.2874 14.2441 95.959 14.6091C96.6452 14.9595 97.1708 15.4632 97.5358 16.1203C97.9155 16.7627 98.1053 17.5073 98.1053 18.3541V21.0698C98.1053 22.3546 97.6891 23.3912 96.8569 24.1796C96.0393 24.9535 94.9443 25.3404 93.5719 25.3404H91.6665ZM93.5499 23.1722C94.1632 23.1722 94.6523 22.9678 95.0173 22.559C95.3969 22.1356 95.5867 21.5881 95.5867 20.9165V18.4855C95.5867 17.8139 95.4042 17.2737 95.0392 16.8649C94.6742 16.4415 94.1851 16.2298 93.5719 16.2298H91.7322C91.119 16.2298 90.6299 16.4415 90.2649 16.8649C89.8999 17.2737 89.7174 17.8139 89.7174 18.4855V20.9165C89.7174 21.5881 89.8999 22.1356 90.2649 22.559C90.6299 22.9678 91.1044 23.1722 91.6884 23.1722H93.5499ZM115.318 15.0909C114.69 14.4047 113.843 14.0616 112.777 14.0616H111.529C111.018 14.0616 110.536 14.2076 110.083 14.4996C109.631 14.777 109.244 15.1712 108.923 15.6822C108.675 15.1712 108.331 14.777 107.893 14.4996C107.455 14.2076 106.959 14.0616 106.404 14.0616H105.156C104.718 14.0616 104.287 14.2003 103.864 14.4777C103.44 14.7551 103.09 15.1347 102.812 15.6165V14.2368H100.469V25.1652H102.988V18.5731C103.09 17.8869 103.316 17.3321 103.667 16.9087C104.032 16.4707 104.455 16.2517 104.937 16.2517H105.922C106.287 16.2517 106.579 16.405 106.798 16.7116C107.017 17.0036 107.127 17.3978 107.127 17.8942V25.1652H109.624V18.157C109.726 17.573 109.945 17.1131 110.281 16.7773C110.616 16.4269 111.025 16.2517 111.507 16.2517H112.558C112.923 16.2517 113.215 16.3977 113.434 16.6897C113.653 16.9671 113.763 17.3467 113.763 17.8285V25.1652H116.281V17.8504C116.281 16.697 115.96 15.7772 115.318 15.0909ZM127.955 21.3764L126.532 25.1652H123.882L129.839 9.83482H130.999C131.788 9.83482 132.335 10.2217 132.642 10.9955L138.117 25.1652H135.445L134.044 21.3764H127.955ZM131.021 13.0104H130.999L128.678 19.2301H133.321L131.021 13.0104ZM147.686 9.83482H139.824V25.1652H142.386V19.9966H147.489C148.832 19.9966 149.912 19.6243 150.73 18.8797C151.562 18.1205 151.978 17.1204 151.978 15.8794V13.7769C151.978 12.5943 151.584 11.6453 150.796 10.9298C150.007 10.1998 148.971 9.83482 147.686 9.83482ZM148.869 17.2153C148.518 17.5803 148.044 17.7628 147.445 17.7628H142.386V12.0687H147.642C148.182 12.0687 148.613 12.2293 148.934 12.5505C149.255 12.8717 149.416 13.3024 149.416 13.8426V15.7918C149.416 16.3758 149.234 16.8503 148.869 17.2153ZM154.115 9.83482H156.678V25.1652H154.115V9.83482ZM160.389 24.3329C161.148 25.0046 162.155 25.3404 163.411 25.3404H165.36C166.601 25.3404 167.594 25.0776 168.338 24.5519C169.083 24.0117 169.455 23.289 169.455 22.3838V21.5735C169.455 20.9603 169.214 20.4274 168.733 19.9747C168.251 19.5221 167.608 19.2155 166.805 19.0549L162.885 18.3541C162.608 18.3103 162.381 18.2154 162.206 18.0694C162.046 17.9234 161.965 17.7482 161.965 17.5438V17.1058C161.965 16.8138 162.104 16.5875 162.381 16.4269C162.659 16.2663 163.053 16.186 163.564 16.186H165.294C165.718 16.186 166.053 16.3028 166.302 16.5364C166.564 16.77 166.696 17.0839 166.696 17.4781H169.171C169.171 16.4561 168.813 15.6311 168.098 15.0033C167.382 14.3755 166.448 14.0616 165.294 14.0616H163.542C162.272 14.0616 161.272 14.3244 160.542 14.85C159.826 15.3756 159.469 16.0911 159.469 16.9963V17.719C159.469 18.3468 159.717 18.9016 160.213 19.3834C160.71 19.8506 161.381 20.1572 162.228 20.3033L166.017 20.9603C166.309 21.0187 166.535 21.1209 166.696 21.2669C166.871 21.4129 166.959 21.5881 166.959 21.7925V22.2743C166.959 22.5663 166.813 22.7999 166.521 22.9751C166.243 23.1357 165.856 23.216 165.36 23.216H163.411C162.9 23.216 162.491 23.0773 162.184 22.7999C161.878 22.5079 161.724 22.1283 161.724 21.6611H159.25C159.25 22.7707 159.629 23.6613 160.389 24.3329Z" fill="#0169EF"/>
</svg>
