<svg width="61" height="62" viewBox="0 0 61 62" fill="none" xmlns="http://www.w3.org/2000/svg">
<path d="M60.5 31.7889C60.5 29.2719 60.2957 27.4352 59.8537 25.5304H31.1123V36.8908H47.9829C47.6429 39.714 45.8061 43.9657 41.7244 46.8227L41.6672 47.203L50.7547 54.243L51.3843 54.3059C57.1665 48.9657 60.5 41.1085 60.5 31.7889Z" fill="#4285F4"/>
<path d="M31.1126 61.7209C39.3777 61.7209 46.3164 58.9997 51.3846 54.306L41.7247 46.8228C39.1397 48.6255 35.6703 49.884 31.1126 49.884C23.0174 49.884 16.1467 44.5441 13.6975 37.1631L13.3385 37.1936L3.8892 44.5065L3.76562 44.8501C8.79957 54.85 19.1397 61.7209 31.1126 61.7209Z" fill="#34A853"/>
<path d="M13.6971 37.1631C13.0509 35.2583 12.6769 33.2174 12.6769 31.1086C12.6769 28.9997 13.0509 26.9589 13.6631 25.0542L13.646 24.6485L4.07826 17.2181L3.76522 17.367C1.69049 21.5167 0.5 26.1767 0.5 31.1086C0.5 36.0406 1.69049 40.7003 3.76522 44.85L13.6971 37.1631Z" fill="#FBBC05"/>
<path d="M31.1126 12.3331C36.8608 12.3331 40.7382 14.8161 42.9492 16.8911L51.5886 8.45565C46.2826 3.52371 39.3777 0.49649 31.1126 0.49649C19.1397 0.49649 8.79957 7.36717 3.76562 17.3671L13.6635 25.0542C16.1467 17.6733 23.0174 12.3331 31.1126 12.3331Z" fill="#EB4335"/>
</svg>
