<svg width="27" height="21" viewBox="0 0 27 21" fill="none" xmlns="http://www.w3.org/2000/svg">
<path d="M23.3495 17.2046H11.1949C10.6832 17.2046 10.2354 17.6199 10.2354 18.0945C10.2354 18.5691 10.6832 18.9844 11.1949 18.9844H23.3495C23.8613 18.9844 24.3091 18.5691 24.3091 18.0945C24.3091 17.6199 23.8613 17.2046 23.3495 17.2046Z" fill="white"/>
<path d="M2.87852 3.55958C3.40847 3.55958 3.83809 3.16116 3.83809 2.66968C3.83809 2.17821 3.40847 1.77979 2.87852 1.77979C2.34856 1.77979 1.91895 2.17821 1.91895 2.66968C1.91895 3.16116 2.34856 3.55958 2.87852 3.55958Z" fill="white"/>
<path d="M2.87852 18.9844C3.40847 18.9844 3.83809 18.586 3.83809 18.0945C3.83809 17.603 3.40847 17.2046 2.87852 17.2046C2.34856 17.2046 1.91895 17.603 1.91895 18.0945C1.91895 18.586 2.34856 18.9844 2.87852 18.9844Z" fill="white"/>
<path d="M11.1949 3.55958H23.3495C23.8613 3.55958 24.3091 3.14429 24.3091 2.66968C24.3091 2.19507 23.8613 1.77979 23.3495 1.77979H11.1949C10.6832 1.77979 10.2354 2.19507 10.2354 2.66968C10.2354 3.14429 10.6832 3.55958 11.1949 3.55958Z" fill="white"/>
<path d="M2.87852 11.272C3.40847 11.272 3.83809 10.8736 3.83809 10.3821C3.83809 9.89061 3.40847 9.49219 2.87852 9.49219C2.34856 9.49219 1.91895 9.89061 1.91895 10.3821C1.91895 10.8736 2.34856 11.272 2.87852 11.272Z" fill="white"/>
<path d="M23.3495 9.49219H11.1949C10.6832 9.49219 10.2354 9.90747 10.2354 10.3821C10.2354 10.8567 10.6832 11.272 11.1949 11.272H23.3495C23.8613 11.272 24.3091 10.8567 24.3091 10.3821C24.3091 9.90747 23.8613 9.49219 23.3495 9.49219Z" fill="white"/>
<path d="M2.87872 0C1.27943 0 0 1.18653 0 2.66969C0 4.15285 1.27943 5.33938 2.87872 5.33938C4.478 5.33938 5.75743 4.15285 5.75743 2.66969C5.75743 1.18653 4.478 0 2.87872 0ZM2.87872 3.55958C2.36695 3.55958 1.91914 3.1443 1.91914 2.66969C1.91914 2.19508 2.36695 1.77979 2.87872 1.77979C3.39049 1.77979 3.83829 2.19508 3.83829 2.66969C3.83829 3.1443 3.39049 3.55958 2.87872 3.55958Z" fill="white"/>
<path d="M11.1951 5.33938H23.3497C24.949 5.33938 26.2284 4.15285 26.2284 2.66969C26.2284 1.18653 24.949 0 23.3497 0H11.1951C9.59584 0 8.31641 1.18653 8.31641 2.66969C8.31641 4.15285 9.59584 5.33938 11.1951 5.33938ZM11.1951 1.77979H23.3497C23.8615 1.77979 24.3093 2.19508 24.3093 2.66969C24.3093 3.1443 23.8615 3.55958 23.3497 3.55958H11.1951C10.6834 3.55958 10.2356 3.1443 10.2356 2.66969C10.2356 2.19508 10.6834 1.77979 11.1951 1.77979Z" fill="white"/>
<path d="M2.87872 7.7124C1.27943 7.7124 0 8.89893 0 10.3821C0 11.8653 1.27943 13.0518 2.87872 13.0518C4.478 13.0518 5.75743 11.8653 5.75743 10.3821C5.75743 8.89893 4.478 7.7124 2.87872 7.7124ZM2.87872 11.272C2.36695 11.272 1.91914 10.8567 1.91914 10.3821C1.91914 9.90748 2.36695 9.49219 2.87872 9.49219C3.39049 9.49219 3.83829 9.90748 3.83829 10.3821C3.83829 10.8567 3.39049 11.272 2.87872 11.272Z" fill="white"/>
<path d="M23.3497 7.7124H11.1951C9.59584 7.7124 8.31641 8.89893 8.31641 10.3821C8.31641 11.8653 9.59584 13.0518 11.1951 13.0518H23.3497C24.949 13.0518 26.2284 11.8653 26.2284 10.3821C26.2284 8.89893 24.949 7.7124 23.3497 7.7124ZM23.3497 11.272H11.1951C10.6834 11.272 10.2356 10.8567 10.2356 10.3821C10.2356 9.90748 10.6834 9.49219 11.1951 9.49219H23.3497C23.8615 9.49219 24.3093 9.90748 24.3093 10.3821C24.3093 10.8567 23.8615 11.272 23.3497 11.272Z" fill="white"/>
<path d="M2.87872 15.4248C1.27943 15.4248 0 16.6113 0 18.0945C0 19.5777 1.27943 20.7642 2.87872 20.7642C4.478 20.7642 5.75743 19.5777 5.75743 18.0945C5.75743 16.6113 4.478 15.4248 2.87872 15.4248ZM2.87872 18.9844C2.36695 18.9844 1.91914 18.5691 1.91914 18.0945C1.91914 17.6199 2.36695 17.2046 2.87872 17.2046C3.39049 17.2046 3.83829 17.6199 3.83829 18.0945C3.83829 18.5691 3.39049 18.9844 2.87872 18.9844Z" fill="white"/>
<path d="M23.3497 15.4248H11.1951C9.59584 15.4248 8.31641 16.6113 8.31641 18.0945C8.31641 19.5777 9.59584 20.7642 11.1951 20.7642H23.3497C24.949 20.7642 26.2284 19.5777 26.2284 18.0945C26.2284 16.6113 24.949 15.4248 23.3497 15.4248ZM23.3497 18.9844H11.1951C10.6834 18.9844 10.2356 18.5691 10.2356 18.0945C10.2356 17.6199 10.6834 17.2046 11.1951 17.2046H23.3497C23.8615 17.2046 24.3093 17.6199 24.3093 18.0945C24.3093 18.5691 23.8615 18.9844 23.3497 18.9844Z" fill="white"/>
</svg>
