<svg width="24" height="24" viewBox="0 0 24 24" fill="none" xmlns="http://www.w3.org/2000/svg">
<path d="M22.1536 11.0769H14.769C13.7536 11.0769 12.9229 10.2462 12.9229 9.23077V1.84615C12.9229 0.830769 13.7536 0 14.769 0H22.1536C23.169 0 23.9998 0.830769 23.9998 1.84615V9.23077C23.9998 10.2462 23.169 11.0769 22.1536 11.0769ZM14.769 1.84615V9.23077H22.1536V1.84615H14.769Z" fill="#5F5F5F"/>
<path d="M22.1536 24.0003H14.769C13.7536 24.0003 12.9229 23.1695 12.9229 22.1541V14.7695C12.9229 13.7541 13.7536 12.9233 14.769 12.9233H22.1536C23.169 12.9233 23.9998 13.7541 23.9998 14.7695V22.1541C23.9998 23.1695 23.169 24.0003 22.1536 24.0003ZM14.769 14.7695V22.1541H22.1536V14.7695H14.769Z" fill="#5F5F5F"/>
<path d="M9.23077 11.0769H1.84615C0.830769 11.0769 0 10.2462 0 9.23077V1.84615C0 0.830769 0.830769 0 1.84615 0H9.23077C10.2462 0 11.0769 0.830769 11.0769 1.84615V9.23077C11.0769 10.2462 10.2462 11.0769 9.23077 11.0769ZM1.84615 1.84615V9.23077H9.23077V1.84615H1.84615Z" fill="#5F5F5F"/>
<path d="M9.23077 24.0003H1.84615C0.830769 24.0003 0 23.1695 0 22.1541V14.7695C0 13.7541 0.830769 12.9233 1.84615 12.9233H9.23077C10.2462 12.9233 11.0769 13.7541 11.0769 14.7695V22.1541C11.0769 23.1695 10.2462 24.0003 9.23077 24.0003ZM1.84615 14.7695V22.1541H9.23077V14.7695H1.84615Z" fill="#5F5F5F"/>
</svg>
