<svg width="44" height="45" viewBox="0 0 44 45" fill="none" xmlns="http://www.w3.org/2000/svg">
<path d="M11.8787 12.5C10.2794 12.5 9 13.6866 9 15.1697C9 16.6529 10.2794 17.8394 11.8787 17.8394C13.478 17.8394 14.7574 16.6529 14.7574 15.1697C14.7574 13.6866 13.478 12.5 11.8787 12.5ZM11.8787 16.0596C11.3669 16.0596 10.9191 15.6443 10.9191 15.1697C10.9191 14.6951 11.3669 14.2798 11.8787 14.2798C12.3905 14.2798 12.8383 14.6951 12.8383 15.1697C12.8383 15.6443 12.3905 16.0596 11.8787 16.0596Z" fill="#5F5F5F"/>
<path d="M20.1951 17.8394H32.3497C33.949 17.8394 35.2284 16.6529 35.2284 15.1697C35.2284 13.6866 33.949 12.5 32.3497 12.5H20.1951C18.5958 12.5 17.3164 13.6866 17.3164 15.1697C17.3164 16.6529 18.5958 17.8394 20.1951 17.8394ZM20.1951 14.2798H32.3497C32.8615 14.2798 33.3093 14.6951 33.3093 15.1697C33.3093 15.6443 32.8615 16.0596 32.3497 16.0596H20.1951C19.6834 16.0596 19.2356 15.6443 19.2356 15.1697C19.2356 14.6951 19.6834 14.2798 20.1951 14.2798Z" fill="#5F5F5F"/>
<path d="M11.8787 20.2124C10.2794 20.2124 9 21.3989 9 22.8821C9 24.3652 10.2794 25.5517 11.8787 25.5517C13.478 25.5517 14.7574 24.3652 14.7574 22.8821C14.7574 21.3989 13.478 20.2124 11.8787 20.2124ZM11.8787 23.772C11.3669 23.772 10.9191 23.3567 10.9191 22.8821C10.9191 22.4074 11.3669 21.9922 11.8787 21.9922C12.3905 21.9922 12.8383 22.4074 12.8383 22.8821C12.8383 23.3567 12.3905 23.772 11.8787 23.772Z" fill="#5F5F5F"/>
<path d="M32.3497 20.2124H20.1951C18.5958 20.2124 17.3164 21.3989 17.3164 22.8821C17.3164 24.3652 18.5958 25.5517 20.1951 25.5517H32.3497C33.949 25.5517 35.2284 24.3652 35.2284 22.8821C35.2284 21.3989 33.949 20.2124 32.3497 20.2124ZM32.3497 23.772H20.1951C19.6834 23.772 19.2356 23.3567 19.2356 22.8821C19.2356 22.4074 19.6834 21.9922 20.1951 21.9922H32.3497C32.8615 21.9922 33.3093 22.4074 33.3093 22.8821C33.3093 23.3567 32.8615 23.772 32.3497 23.772Z" fill="#5F5F5F"/>
<path d="M11.8787 27.9249C10.2794 27.9249 9 29.1114 9 30.5946C9 32.0777 10.2794 33.2642 11.8787 33.2642C13.478 33.2642 14.7574 32.0777 14.7574 30.5946C14.7574 29.1114 13.478 27.9249 11.8787 27.9249ZM11.8787 31.4844C11.3669 31.4844 10.9191 31.0692 10.9191 30.5946C10.9191 30.1199 11.3669 29.7047 11.8787 29.7047C12.3905 29.7047 12.8383 30.1199 12.8383 30.5946C12.8383 31.0692 12.3905 31.4844 11.8787 31.4844Z" fill="#5F5F5F"/>
<path d="M32.3497 27.9249H20.1951C18.5958 27.9249 17.3164 29.1114 17.3164 30.5946C17.3164 32.0777 18.5958 33.2642 20.1951 33.2642H32.3497C33.949 33.2642 35.2284 32.0777 35.2284 30.5946C35.2284 29.1114 33.949 27.9249 32.3497 27.9249ZM32.3497 31.4844H20.1951C19.6834 31.4844 19.2356 31.0692 19.2356 30.5946C19.2356 30.1199 19.6834 29.7047 20.1951 29.7047H32.3497C32.8615 29.7047 33.3093 30.1199 33.3093 30.5946C33.3093 31.0692 32.8615 31.4844 32.3497 31.4844Z" fill="#5F5F5F"/>
</svg>
