<svg width="23" height="23" viewBox="0 0 23 23" fill="none" xmlns="http://www.w3.org/2000/svg">
<path fill-rule="evenodd" clip-rule="evenodd" d="M11.4999 3.17241C12.3744 3.17241 13.1055 2.54962 13.2736 1.72414H15.8447C16.0441 1.72414 16.2068 1.88679 16.2068 2.08621V10.0517C16.2068 10.2519 16.3687 10.4138 16.5688 10.4138C16.769 10.4138 16.9309 10.2519 16.9309 10.0517V2.08621C16.9309 1.48724 16.4437 1 15.8447 1H7.15505C6.55609 1 6.06885 1.48724 6.06885 2.08621V6.43103C6.06885 6.63116 6.23079 6.7931 6.43092 6.7931C6.63104 6.7931 6.79299 6.63116 6.79299 6.43103V2.08621C6.79299 1.88679 6.95563 1.72414 7.15505 1.72414H9.72613C9.89431 2.54962 10.6254 3.17241 11.4999 3.17241ZM12.5239 1.72414C12.3746 2.14561 11.9723 2.44828 11.4999 2.44828C11.0275 2.44828 10.6251 2.14561 10.4759 1.72414H12.5239ZM17.7811 11.6973L14.8825 10.2483C14.613 10.1147 14.3097 10.0991 14.0346 10.1967V7.8793C14.0346 7.28033 13.5473 6.7931 12.9484 6.7931C12.3494 6.7931 11.8622 7.28033 11.8622 7.8793V11.4965C11.5022 11.3699 11.0312 11.4576 10.73 11.7581C10.5291 11.9589 10.4139 12.2369 10.4139 12.5211V16.9933C10.4139 17.279 10.5299 17.559 10.7321 17.7612L11.138 18.1672V18.3793H10.7759C10.5758 18.3793 10.4139 18.5412 10.4139 18.7414V21.6379C10.4139 21.8381 10.5758 22 10.7759 22H18.0173C18.2175 22 18.3794 21.8381 18.3794 21.6379V18.7414C18.3794 18.5412 18.2175 18.3793 18.0173 18.3793H17.6553V18.1672L18.0612 17.7612C18.2634 17.559 18.3794 17.279 18.3794 16.9933V12.6661C18.3794 12.2538 18.1503 11.8826 17.7811 11.6973ZM17.6553 21.2759H11.138V19.1034H17.6553V21.2759ZM17.6553 16.9933C17.6553 17.0887 17.6164 17.1821 17.5492 17.2493L17.0372 17.7612C16.9693 17.8291 16.9311 17.9211 16.9311 18.0172V18.3793H11.8622V18.0172C11.8622 17.9211 11.824 17.8291 11.7561 17.7612L11.2441 17.2493C11.1769 17.1821 11.138 17.0887 11.138 16.9933V12.5211C11.138 12.4306 11.1776 12.3344 11.242 12.2701C11.4548 12.0565 11.8622 12.1859 11.8622 12.5211V14.3965C11.8622 14.5967 12.0241 14.7586 12.2242 14.7586C12.4243 14.7586 12.5863 14.5967 12.5863 14.3965V7.8793C12.5863 7.67988 12.7489 7.51723 12.9484 7.51723C13.1478 7.51723 13.3104 7.67988 13.3104 7.8793V14.3965C13.3104 14.5967 13.4724 14.7586 13.6725 14.7586C13.8726 14.7586 14.0346 14.5967 14.0346 14.3965V11.2249C14.0346 11.0948 14.0968 10.9816 14.2057 10.9138C14.3146 10.8459 14.4461 10.8395 14.5607 10.8968L14.7587 10.9958V12.2241C14.7587 12.4243 14.9206 12.5862 15.1208 12.5862C15.3209 12.5862 15.4828 12.4243 15.4828 12.2241V11.358L16.207 11.7201V12.9483C16.207 13.1484 16.3689 13.3103 16.569 13.3103C16.7692 13.3103 16.9311 13.1484 16.9311 12.9483V12.0823L17.4565 12.3451C17.5796 12.4059 17.6553 12.5296 17.6553 12.6661V16.9933ZM12.2241 20.5517C12.4241 20.5517 12.5862 20.3896 12.5862 20.1897C12.5862 19.9897 12.4241 19.8276 12.2241 19.8276C12.0241 19.8276 11.862 19.9897 11.862 20.1897C11.862 20.3896 12.0241 20.5517 12.2241 20.5517ZM7.15505 16.2069H9.32747C9.5276 16.2069 9.68954 16.3688 9.68954 16.569C9.68954 16.7691 9.5276 16.931 9.32747 16.931H7.15505C6.55609 16.931 6.06885 16.4438 6.06885 15.8448V9.32758C6.06885 9.12745 6.23079 8.96551 6.43092 8.96551C6.63104 8.96551 6.79299 9.12745 6.79299 9.32758V15.8448C6.79299 16.0442 6.95563 16.2069 7.15505 16.2069ZM4.40849 6.07039H4.9827C5.18283 6.07039 5.34477 6.23233 5.34477 6.43246C5.34477 6.63259 5.18283 6.79453 4.9827 6.79453H4.25857C4.16239 6.79453 4.07046 6.75634 4.00257 6.68845L3.27565 5.96153C3.13404 6.02929 2.97749 6.07039 2.81029 6.07039C2.21132 6.07039 1.72408 5.58315 1.72408 4.98418C1.72408 4.38521 2.21132 3.89798 2.81029 3.89798C3.40926 3.89798 3.8965 4.38521 3.8965 4.98418C3.8965 5.15138 3.85539 5.30793 3.78764 5.44954L4.40849 6.07039ZM2.81029 4.62212C2.61087 4.62212 2.44822 4.78476 2.44822 4.98418C2.44822 5.18361 2.61087 5.34625 2.81029 5.34625C3.00971 5.34625 3.17236 5.18361 3.17236 4.98418C3.17236 4.78476 3.00971 4.62212 2.81029 4.62212ZM4.9827 8.96551H4.25857C4.16239 8.96551 4.07046 9.0037 4.00257 9.07159L3.27565 9.79851C3.13404 9.73075 2.97749 9.68965 2.81029 9.68965C2.21132 9.68965 1.72408 10.1769 1.72408 10.7759C1.72408 11.3748 2.21132 11.8621 2.81029 11.8621C3.40926 11.8621 3.8965 11.3748 3.8965 10.7759C3.8965 10.6087 3.85539 10.4521 3.78764 10.3105L4.40849 9.68965H4.9827C5.18283 9.68965 5.34477 9.52771 5.34477 9.32758C5.34477 9.12745 5.18283 8.96551 4.9827 8.96551ZM2.81029 11.1379C2.61087 11.1379 2.44822 10.9753 2.44822 10.7759C2.44822 10.5764 2.61087 10.4138 2.81029 10.4138C3.00971 10.4138 3.17236 10.5764 3.17236 10.7759C3.17236 10.9753 3.00971 11.1379 2.81029 11.1379ZM4.25862 8.24278H3.10572C2.95576 8.66333 2.55762 8.96692 2.08621 8.96692C1.48724 8.96692 1 8.47969 1 7.88072C1 7.28175 1.48724 6.79451 2.08621 6.79451C2.55762 6.79451 2.95576 7.0981 3.10572 7.51865H4.25862C4.45875 7.51865 4.62069 7.68059 4.62069 7.88072C4.62069 8.08084 4.45875 8.24278 4.25862 8.24278ZM2.08621 7.51865C1.88679 7.51865 1.72414 7.68129 1.72414 7.88072C1.72414 8.08014 1.88679 8.24278 2.08621 8.24278C2.28563 8.24278 2.44828 8.08014 2.44828 7.88072C2.44828 7.68129 2.28563 7.51865 2.08621 7.51865ZM18.0173 6.07039C17.8172 6.07039 17.6552 6.23233 17.6552 6.43246C17.6552 6.63259 17.8172 6.79453 18.0173 6.79453H18.7414C18.8376 6.79453 18.9295 6.75634 18.9974 6.68845L19.7244 5.96153C19.866 6.02929 20.0225 6.07039 20.1897 6.07039C20.7887 6.07039 21.2759 5.58315 21.2759 4.98418C21.2759 4.38521 20.7887 3.89798 20.1897 3.89798C19.5907 3.89798 19.1035 4.38521 19.1035 4.98418C19.1035 5.15138 19.1446 5.30793 19.2124 5.44954L18.5915 6.07039H18.0173ZM20.1897 4.62212C20.3891 4.62212 20.5518 4.78476 20.5518 4.98418C20.5518 5.18361 20.3891 5.34625 20.1897 5.34625C19.9903 5.34625 19.8276 5.18361 19.8276 4.98418C19.8276 4.78476 19.9903 4.62212 20.1897 4.62212ZM19.7244 9.79851C19.866 9.73075 20.0225 9.68965 20.1897 9.68965C20.7887 9.68965 21.2759 10.1769 21.2759 10.7759C21.2759 11.3748 20.7887 11.8621 20.1897 11.8621C19.5907 11.8621 19.1035 11.3748 19.1035 10.7759C19.1035 10.6087 19.1446 10.4521 19.2124 10.3105L18.5915 9.68965H18.0173C17.8172 9.68965 17.6552 9.52771 17.6552 9.32758C17.6552 9.12745 17.8172 8.96551 18.0173 8.96551H18.7414C18.8376 8.96551 18.9295 9.0037 18.9974 9.07159L19.7244 9.79851ZM19.8276 10.7759C19.8276 10.9753 19.9903 11.1379 20.1897 11.1379C20.3891 11.1379 20.5518 10.9753 20.5518 10.7759C20.5518 10.5764 20.3891 10.4138 20.1897 10.4138C19.9903 10.4138 19.8276 10.5764 19.8276 10.7759ZM20.9138 6.79451C20.4424 6.79451 20.0443 7.0981 19.8943 7.51865H18.7414C18.5413 7.51865 18.3793 7.68059 18.3793 7.88072C18.3793 8.08084 18.5413 8.24278 18.7414 8.24278H19.8943C20.0443 8.66333 20.4424 8.96692 20.9138 8.96692C21.5128 8.96692 22 8.47969 22 7.88072C22 7.28175 21.5128 6.79451 20.9138 6.79451ZM20.9138 8.24278C20.7144 8.24278 20.5517 8.08014 20.5517 7.88072C20.5517 7.68129 20.7144 7.51865 20.9138 7.51865C21.1132 7.51865 21.2759 7.68129 21.2759 7.88072C21.2759 8.08014 21.1132 8.24278 20.9138 8.24278ZM6.79299 7.87931C6.79299 8.07928 6.63088 8.24138 6.43092 8.24138C6.23095 8.24138 6.06885 8.07928 6.06885 7.87931C6.06885 7.67935 6.23095 7.51724 6.43092 7.51724C6.63088 7.51724 6.79299 7.67935 6.79299 7.87931Z" fill="#0169EF"/>
<path d="M13.2736 1.72414V1.52414H13.1103L13.0777 1.68421L13.2736 1.72414ZM9.72613 1.72414L9.92211 1.68421L9.8895 1.52414H9.72613V1.72414ZM12.5239 1.72414L12.7124 1.79088L12.8068 1.52414H12.5239V1.72414ZM10.4759 1.72414V1.52414H10.1929L10.2874 1.79088L10.4759 1.72414ZM14.8825 10.2483L14.9719 10.0694L14.9713 10.0691L14.8825 10.2483ZM17.7811 11.6973L17.8708 11.5185L17.8706 11.5184L17.7811 11.6973ZM14.0346 10.1967H13.8346V10.4798L14.1014 10.3852L14.0346 10.1967ZM11.8622 11.4965L11.7958 11.6851L12.0622 11.7788V11.4965H11.8622ZM10.73 11.7581L10.5887 11.6165L10.5886 11.6167L10.73 11.7581ZM10.7321 17.7612L10.8735 17.6198L10.8735 17.6198L10.7321 17.7612ZM11.138 18.1672H11.338V18.0843L11.2794 18.0257L11.138 18.1672ZM11.138 18.3793V18.5793H11.338V18.3793H11.138ZM17.6553 18.3793H17.4553V18.5793H17.6553V18.3793ZM17.6553 18.1672L17.5138 18.0257L17.4553 18.0843V18.1672H17.6553ZM18.0612 17.7612L17.9197 17.6198L17.9197 17.6198L18.0612 17.7612ZM11.138 21.2759H10.938V21.4759H11.138V21.2759ZM17.6553 21.2759V21.4759H17.8553V21.2759H17.6553ZM11.138 19.1034V18.9034H10.938V19.1034H11.138ZM17.6553 19.1034H17.8553V18.9034H17.6553V19.1034ZM16.9311 18.3793V18.5793H17.1311V18.3793H16.9311ZM11.8622 18.3793H11.6622V18.5793H11.8622V18.3793ZM11.7561 17.7612L11.8975 17.6198L11.8975 17.6198L11.7561 17.7612ZM11.2441 17.2493L11.1027 17.3907L11.2441 17.2493ZM11.242 12.2701L11.3834 12.4115L11.3836 12.4113L11.242 12.2701ZM14.2057 10.9138L14.3115 11.0835L14.2057 10.9138ZM14.5607 10.8968L14.6502 10.7179L14.6501 10.7179L14.5607 10.8968ZM14.7587 10.9958H14.9587V10.8722L14.8482 10.817L14.7587 10.9958ZM15.4828 11.358L15.5723 11.1791L15.2828 11.0343V11.358H15.4828ZM16.207 11.7201H16.407V11.5965L16.2964 11.5413L16.207 11.7201ZM16.9311 12.0823L17.0206 11.9034L16.7311 11.7587V12.0823H16.9311ZM17.4565 12.3451L17.3671 12.5239L17.3679 12.5244L17.4565 12.3451ZM4.40849 6.07039L4.26706 6.21181L4.32564 6.27039H4.40849V6.07039ZM4.00257 6.68845L3.86115 6.82988L3.86115 6.82988L4.00257 6.68845ZM3.27565 5.96153L3.41707 5.82011L3.317 5.72004L3.18933 5.78112L3.27565 5.96153ZM3.78764 5.44954L3.60723 5.36322L3.54614 5.49089L3.64622 5.59096L3.78764 5.44954ZM4.00257 9.07159L4.14399 9.21301H4.14399L4.00257 9.07159ZM3.27565 9.79851L3.18933 9.97892L3.317 10.04L3.41707 9.93993L3.27565 9.79851ZM3.78764 10.3105L3.64622 10.1691L3.54614 10.2691L3.60723 10.3968L3.78764 10.3105ZM4.40849 9.68965V9.48965H4.32564L4.26706 9.54823L4.40849 9.68965ZM3.10572 8.24278V8.04279H2.9647L2.91734 8.17561L3.10572 8.24278ZM3.10572 7.51865L2.91734 7.58582L2.9647 7.71865H3.10572V7.51865ZM18.9974 6.68845L19.1389 6.82988V6.82988L18.9974 6.68845ZM19.7244 5.96153L19.8107 5.78112L19.683 5.72003L19.5829 5.82011L19.7244 5.96153ZM19.2124 5.44954L19.3538 5.59096L19.4539 5.49089L19.3928 5.36322L19.2124 5.44954ZM18.5915 6.07039V6.27039H18.6744L18.7329 6.21181L18.5915 6.07039ZM19.7244 9.79851L19.5829 9.93993L19.683 10.04L19.8107 9.97892L19.7244 9.79851ZM19.2124 10.3105L19.3928 10.3968L19.4539 10.2691L19.3538 10.1691L19.2124 10.3105ZM18.5915 9.68965L18.7329 9.54823L18.6744 9.48965H18.5915V9.68965ZM18.9974 9.07159L18.856 9.21301H18.856L18.9974 9.07159ZM19.8943 7.51865V7.71865H20.0353L20.0827 7.58582L19.8943 7.51865ZM19.8943 8.24278L20.0827 8.17561L20.0353 8.04279H19.8943V8.24278ZM13.0777 1.68421C12.928 2.41857 12.2773 2.97241 11.4999 2.97241V3.37241C12.4715 3.37241 13.2829 2.68068 13.4696 1.76406L13.0777 1.68421ZM15.8447 1.52414H13.2736V1.92414H15.8447V1.52414ZM16.4068 2.08621C16.4068 1.77633 16.1546 1.52414 15.8447 1.52414V1.92414C15.9337 1.92414 16.0068 1.99724 16.0068 2.08621H16.4068ZM16.4068 10.0517V2.08621H16.0068V10.0517H16.4068ZM16.5688 10.2138C16.4792 10.2138 16.4068 10.1414 16.4068 10.0517H16.0068C16.0068 10.3623 16.2583 10.6138 16.5688 10.6138V10.2138ZM16.7309 10.0517C16.7309 10.1414 16.6585 10.2138 16.5688 10.2138V10.6138C16.8794 10.6138 17.1309 10.3623 17.1309 10.0517H16.7309ZM16.7309 2.08621V10.0517H17.1309V2.08621H16.7309ZM15.8447 1.2C16.3332 1.2 16.7309 1.59769 16.7309 2.08621H17.1309C17.1309 1.37678 16.5541 0.8 15.8447 0.8V1.2ZM7.15505 1.2H15.8447V0.8H7.15505V1.2ZM6.26885 2.08621C6.26885 1.59769 6.66654 1.2 7.15505 1.2V0.8C6.44563 0.8 5.86885 1.37678 5.86885 2.08621H6.26885ZM6.26885 6.43103V2.08621H5.86885V6.43103H6.26885ZM6.43092 6.5931C6.34125 6.5931 6.26885 6.52071 6.26885 6.43103H5.86885C5.86885 6.74162 6.12033 6.9931 6.43092 6.9931V6.5931ZM6.59299 6.43103C6.59299 6.52071 6.52059 6.5931 6.43092 6.5931V6.9931C6.7415 6.9931 6.99299 6.74162 6.99299 6.43103H6.59299ZM6.59299 2.08621V6.43103H6.99299V2.08621H6.59299ZM7.15505 1.52414C6.84518 1.52414 6.59299 1.77633 6.59299 2.08621H6.99299C6.99299 1.99724 7.06609 1.92414 7.15505 1.92414V1.52414ZM9.72613 1.52414H7.15505V1.92414H9.72613V1.52414ZM11.4999 2.97241C10.7225 2.97241 10.0717 2.41857 9.92211 1.68421L9.53016 1.76406C9.7169 2.68068 10.5283 3.37241 11.4999 3.37241V2.97241ZM11.4999 2.64828C12.0598 2.64828 12.5359 2.28954 12.7124 1.79088L12.3353 1.65739C12.2134 2.00168 11.8847 2.24828 11.4999 2.24828V2.64828ZM10.2874 1.79088C10.4639 2.28954 10.94 2.64828 11.4999 2.64828V2.24828C11.115 2.24828 10.7863 2.00168 10.6644 1.65739L10.2874 1.79088ZM12.5239 1.52414H10.4759V1.92414H12.5239V1.52414ZM14.793 10.4272L17.6917 11.8762L17.8706 11.5184L14.9719 10.0694L14.793 10.4272ZM14.1014 10.3852C14.3259 10.3055 14.573 10.3181 14.7936 10.4275L14.9713 10.0691C14.653 9.91123 14.2934 9.89265 13.9677 10.0082L14.1014 10.3852ZM13.8346 7.8793V10.1967H14.2346V7.8793H13.8346ZM12.9484 6.9931C13.4369 6.9931 13.8346 7.39079 13.8346 7.8793H14.2346C14.2346 7.16988 13.6578 6.5931 12.9484 6.5931V6.9931ZM12.0622 7.8793C12.0622 7.39079 12.4598 6.9931 12.9484 6.9931V6.5931C12.2389 6.5931 11.6622 7.16988 11.6622 7.8793H12.0622ZM12.0622 11.4965V7.8793H11.6622V11.4965H12.0622ZM10.8712 11.8997C11.1162 11.6553 11.5058 11.5832 11.7958 11.6851L11.9285 11.3078C11.4986 11.1566 10.9463 11.2598 10.5887 11.6165L10.8712 11.8997ZM10.6139 12.5211C10.6139 12.2899 10.708 12.0629 10.8714 11.8995L10.5886 11.6167C10.3502 11.855 10.2139 12.1838 10.2139 12.5211H10.6139ZM10.6139 16.9933V12.5211H10.2139V16.9933H10.6139ZM10.8735 17.6198C10.7088 17.4551 10.6139 17.2259 10.6139 16.9933H10.2139C10.2139 17.332 10.3509 17.6629 10.5907 17.9027L10.8735 17.6198ZM11.2794 18.0257L10.8735 17.6198L10.5907 17.9027L10.9966 18.3086L11.2794 18.0257ZM11.338 18.3793V18.1672H10.938V18.3793H11.338ZM10.7759 18.5793H11.138V18.1793H10.7759V18.5793ZM10.6139 18.7414C10.6139 18.6517 10.6863 18.5793 10.7759 18.5793V18.1793C10.4654 18.1793 10.2139 18.4308 10.2139 18.7414H10.6139ZM10.6139 21.6379V18.7414H10.2139V21.6379H10.6139ZM10.7759 21.8C10.6863 21.8 10.6139 21.7276 10.6139 21.6379H10.2139C10.2139 21.9485 10.4654 22.2 10.7759 22.2V21.8ZM18.0173 21.8H10.7759V22.2H18.0173V21.8ZM18.1794 21.6379C18.1794 21.7276 18.107 21.8 18.0173 21.8V22.2C18.3279 22.2 18.5794 21.9485 18.5794 21.6379H18.1794ZM18.1794 18.7414V21.6379H18.5794V18.7414H18.1794ZM18.0173 18.5793C18.107 18.5793 18.1794 18.6517 18.1794 18.7414H18.5794C18.5794 18.4308 18.3279 18.1793 18.0173 18.1793V18.5793ZM17.6553 18.5793H18.0173V18.1793H17.6553V18.5793ZM17.4553 18.1672V18.3793H17.8553V18.1672H17.4553ZM17.9197 17.6198L17.5138 18.0257L17.7967 18.3086L18.2026 17.9027L17.9197 17.6198ZM18.1794 16.9933C18.1794 17.2259 18.0845 17.4551 17.9197 17.6198L18.2026 17.9027C18.4423 17.6629 18.5794 17.332 18.5794 16.9933H18.1794ZM18.1794 12.6661V16.9933H18.5794V12.6661H18.1794ZM17.6914 11.876C17.993 12.0274 18.1794 12.3296 18.1794 12.6661H18.5794C18.5794 12.1781 18.3075 11.7377 17.8708 11.5185L17.6914 11.876ZM11.138 21.4759H17.6553V21.0759H11.138V21.4759ZM10.938 19.1034V21.2759H11.338V19.1034H10.938ZM17.6553 18.9034H11.138V19.3034H17.6553V18.9034ZM17.8553 21.2759V19.1034H17.4553V21.2759H17.8553ZM17.6906 17.3907C17.7952 17.2861 17.8553 17.142 17.8553 16.9933H17.4553C17.4553 17.0355 17.4376 17.078 17.4078 17.1078L17.6906 17.3907ZM17.1786 17.9027L17.6906 17.3907L17.4078 17.1078L16.8958 17.6198L17.1786 17.9027ZM17.1311 18.0172C17.1311 17.9742 17.1482 17.9331 17.1786 17.9027L16.8958 17.6198C16.7904 17.7251 16.7311 17.8679 16.7311 18.0172H17.1311ZM17.1311 18.3793V18.0172H16.7311V18.3793H17.1311ZM11.8622 18.5793H16.9311V18.1793H11.8622V18.5793ZM11.6622 18.0172V18.3793H12.0622V18.0172H11.6622ZM11.6147 17.9027C11.6451 17.9331 11.6622 17.9742 11.6622 18.0172H12.0622C12.0622 17.8679 12.0028 17.7251 11.8975 17.6198L11.6147 17.9027ZM11.1027 17.3907L11.6147 17.9027L11.8975 17.6198L11.3855 17.1078L11.1027 17.3907ZM10.938 16.9933C10.938 17.142 10.9981 17.2861 11.1027 17.3907L11.3855 17.1078C11.3557 17.078 11.338 17.0355 11.338 16.9933H10.938ZM10.938 12.5211V16.9933H11.338V12.5211H10.938ZM11.1005 12.1287C10.9986 12.2307 10.938 12.3778 10.938 12.5211H11.338C11.338 12.4835 11.3567 12.4382 11.3834 12.4115L11.1005 12.1287ZM12.0622 12.5211C12.0622 12.2602 11.8988 12.0754 11.7013 12.0023C11.5094 11.9312 11.269 11.9596 11.1003 12.1289L11.3836 12.4113C11.4277 12.367 11.4975 12.3533 11.5624 12.3774C11.6219 12.3994 11.6622 12.4469 11.6622 12.5211H12.0622ZM12.0622 14.3965V12.5211H11.6622V14.3965H12.0622ZM12.2242 14.5586C12.1345 14.5586 12.0622 14.4862 12.0622 14.3965H11.6622C11.6622 14.7071 11.9136 14.9586 12.2242 14.9586V14.5586ZM12.3863 14.3965C12.3863 14.4862 12.3139 14.5586 12.2242 14.5586V14.9586C12.5348 14.9586 12.7863 14.7071 12.7863 14.3965H12.3863ZM12.3863 7.8793V14.3965H12.7863V7.8793H12.3863ZM12.9484 7.31723C12.6385 7.31723 12.3863 7.56942 12.3863 7.8793H12.7863C12.7863 7.79034 12.8594 7.71723 12.9484 7.71723V7.31723ZM13.5104 7.8793C13.5104 7.56942 13.2582 7.31723 12.9484 7.31723V7.71723C13.0373 7.71723 13.1104 7.79034 13.1104 7.8793H13.5104ZM13.5104 14.3965V7.8793H13.1104V14.3965H13.5104ZM13.6725 14.5586C13.5828 14.5586 13.5104 14.4862 13.5104 14.3965H13.1104C13.1104 14.7071 13.3619 14.9586 13.6725 14.9586V14.5586ZM13.8346 14.3965C13.8346 14.4862 13.7622 14.5586 13.6725 14.5586V14.9586C13.9831 14.9586 14.2346 14.7071 14.2346 14.3965H13.8346ZM13.8346 11.2249V14.3965H14.2346V11.2249H13.8346ZM14.0999 10.744C13.9314 10.8491 13.8346 11.0269 13.8346 11.2249H14.2346C14.2346 11.1627 14.2622 11.1142 14.3115 11.0835L14.0999 10.744ZM14.6501 10.7179C14.4731 10.6293 14.2676 10.6395 14.0999 10.744L14.3115 11.0835C14.3616 11.0522 14.4192 11.0496 14.4713 11.0757L14.6501 10.7179ZM14.8482 10.817L14.6502 10.7179L14.4712 11.0756L14.6692 11.1747L14.8482 10.817ZM14.9587 12.2241V10.9958H14.5587V12.2241H14.9587ZM15.1208 12.3862C15.0311 12.3862 14.9587 12.3138 14.9587 12.2241H14.5587C14.5587 12.5347 14.8102 12.7862 15.1208 12.7862V12.3862ZM15.2828 12.2241C15.2828 12.3138 15.2104 12.3862 15.1208 12.3862V12.7862C15.4314 12.7862 15.6828 12.5347 15.6828 12.2241H15.2828ZM15.2828 11.358V12.2241H15.6828V11.358H15.2828ZM16.2964 11.5413L15.5723 11.1791L15.3934 11.5369L16.1175 11.899L16.2964 11.5413ZM16.407 12.9483V11.7201H16.007V12.9483H16.407ZM16.569 13.1103C16.4794 13.1103 16.407 13.0379 16.407 12.9483H16.007C16.007 13.2589 16.2585 13.5103 16.569 13.5103V13.1103ZM16.7311 12.9483C16.7311 13.0379 16.6587 13.1103 16.569 13.1103V13.5103C16.8796 13.5103 17.1311 13.2589 17.1311 12.9483H16.7311ZM16.7311 12.0823V12.9483H17.1311V12.0823H16.7311ZM17.546 12.1662L17.0206 11.9034L16.8417 12.2612L17.3671 12.5239L17.546 12.1662ZM17.8553 12.6661C17.8553 12.4545 17.7373 12.2607 17.5452 12.1658L17.3679 12.5244C17.4219 12.551 17.4553 12.6047 17.4553 12.6661H17.8553ZM17.8553 16.9933V12.6661H17.4553V16.9933H17.8553ZM12.3862 20.1897C12.3862 20.2792 12.3136 20.3517 12.2241 20.3517V20.7517C12.5345 20.7517 12.7862 20.5001 12.7862 20.1897H12.3862ZM12.2241 20.0276C12.3136 20.0276 12.3862 20.1001 12.3862 20.1897H12.7862C12.7862 19.8792 12.5345 19.6276 12.2241 19.6276V20.0276ZM12.062 20.1897C12.062 20.1001 12.1346 20.0276 12.2241 20.0276V19.6276C11.9137 19.6276 11.662 19.8792 11.662 20.1897H12.062ZM12.2241 20.3517C12.1346 20.3517 12.062 20.2792 12.062 20.1897H11.662C11.662 20.5001 11.9137 20.7517 12.2241 20.7517V20.3517ZM9.32747 16.0069H7.15505V16.4069H9.32747V16.0069ZM9.88954 16.569C9.88954 16.2584 9.63805 16.0069 9.32747 16.0069V16.4069C9.41714 16.4069 9.48954 16.4793 9.48954 16.569H9.88954ZM9.32747 17.131C9.63805 17.131 9.88954 16.8795 9.88954 16.569H9.48954C9.48954 16.6586 9.41714 16.731 9.32747 16.731V17.131ZM7.15505 17.131H9.32747V16.731H7.15505V17.131ZM5.86885 15.8448C5.86885 16.5542 6.44563 17.131 7.15505 17.131V16.731C6.66654 16.731 6.26885 16.3333 6.26885 15.8448H5.86885ZM5.86885 9.32758V15.8448H6.26885V9.32758H5.86885ZM6.43092 8.76551C6.12033 8.76551 5.86885 9.01699 5.86885 9.32758H6.26885C6.26885 9.23791 6.34125 9.16551 6.43092 9.16551V8.76551ZM6.99299 9.32758C6.99299 9.01699 6.7415 8.76551 6.43092 8.76551V9.16551C6.52059 9.16551 6.59299 9.23791 6.59299 9.32758H6.99299ZM6.99299 15.8448V9.32758H6.59299V15.8448H6.99299ZM7.15505 16.0069C7.06609 16.0069 6.99299 15.9338 6.99299 15.8448H6.59299C6.59299 16.1547 6.84518 16.4069 7.15505 16.4069V16.0069ZM4.9827 5.87039H4.40849V6.27039H4.9827V5.87039ZM5.54477 6.43246C5.54477 6.12188 5.29329 5.87039 4.9827 5.87039V6.27039C5.07238 6.27039 5.14477 6.34279 5.14477 6.43246H5.54477ZM4.9827 6.99453C5.29329 6.99453 5.54477 6.74304 5.54477 6.43246H5.14477C5.14477 6.52213 5.07238 6.59453 4.9827 6.59453V6.99453ZM4.25857 6.99453H4.9827V6.59453H4.25857V6.99453ZM3.86115 6.82988C3.96647 6.9352 4.10924 6.99453 4.25857 6.99453V6.59453C4.21554 6.59453 4.17445 6.57749 4.14399 6.54703L3.86115 6.82988ZM3.13423 6.10295L3.86115 6.82988L4.14399 6.54703L3.41707 5.82011L3.13423 6.10295ZM2.81029 6.27039C3.01094 6.27039 3.19684 6.22096 3.36197 6.14194L3.18933 5.78112C3.07124 5.83762 2.94404 5.87039 2.81029 5.87039V6.27039ZM1.52408 4.98418C1.52408 5.69361 2.10086 6.27039 2.81029 6.27039V5.87039C2.32178 5.87039 1.92408 5.4727 1.92408 4.98418H1.52408ZM2.81029 3.69798C2.10086 3.69798 1.52408 4.27476 1.52408 4.98418H1.92408C1.92408 4.49567 2.32178 4.09798 2.81029 4.09798V3.69798ZM4.0965 4.98418C4.0965 4.27476 3.51972 3.69798 2.81029 3.69798V4.09798C3.2988 4.09798 3.6965 4.49567 3.6965 4.98418H4.0965ZM3.96805 5.53586C4.04706 5.37073 4.0965 5.18484 4.0965 4.98418H3.6965C3.6965 5.11793 3.66372 5.24514 3.60723 5.36322L3.96805 5.53586ZM4.54991 5.92897L3.92906 5.30812L3.64622 5.59096L4.26706 6.21181L4.54991 5.92897ZM2.64822 4.98418C2.64822 4.89522 2.72133 4.82212 2.81029 4.82212V4.42212C2.50041 4.42212 2.24822 4.67431 2.24822 4.98418H2.64822ZM2.81029 5.14625C2.72133 5.14625 2.64822 5.07315 2.64822 4.98418H2.24822C2.24822 5.29406 2.50041 5.54625 2.81029 5.54625V5.14625ZM2.97236 4.98418C2.97236 5.07315 2.89925 5.14625 2.81029 5.14625V5.54625C3.12017 5.54625 3.37236 5.29406 3.37236 4.98418H2.97236ZM2.81029 4.82212C2.89925 4.82212 2.97236 4.89522 2.97236 4.98418H3.37236C3.37236 4.67431 3.12017 4.42212 2.81029 4.42212V4.82212ZM4.25857 9.16551H4.9827V8.76551H4.25857V9.16551ZM4.14399 9.21301C4.17445 9.18255 4.21554 9.16551 4.25857 9.16551V8.76551C4.10924 8.76551 3.96647 8.82484 3.86115 8.93016L4.14399 9.21301ZM3.41707 9.93993L4.14399 9.21301L3.86115 8.93016L3.13423 9.65709L3.41707 9.93993ZM2.81029 9.88965C2.94404 9.88965 3.07124 9.92242 3.18933 9.97892L3.36197 9.6181C3.19684 9.53908 3.01094 9.48965 2.81029 9.48965V9.88965ZM1.92408 10.7759C1.92408 10.2873 2.32178 9.88965 2.81029 9.88965V9.48965C2.10086 9.48965 1.52408 10.0664 1.52408 10.7759H1.92408ZM2.81029 11.6621C2.32178 11.6621 1.92408 11.2644 1.92408 10.7759H1.52408C1.52408 11.4853 2.10086 12.0621 2.81029 12.0621V11.6621ZM3.6965 10.7759C3.6965 11.2644 3.2988 11.6621 2.81029 11.6621V12.0621C3.51972 12.0621 4.0965 11.4853 4.0965 10.7759H3.6965ZM3.60723 10.3968C3.66372 10.5149 3.6965 10.6421 3.6965 10.7759H4.0965C4.0965 10.5752 4.04706 10.3893 3.96805 10.2242L3.60723 10.3968ZM4.26706 9.54823L3.64622 10.1691L3.92906 10.4519L4.54991 9.83107L4.26706 9.54823ZM4.9827 9.48965H4.40849V9.88965H4.9827V9.48965ZM5.14477 9.32758C5.14477 9.41725 5.07238 9.48965 4.9827 9.48965V9.88965C5.29329 9.88965 5.54477 9.63816 5.54477 9.32758H5.14477ZM4.9827 9.16551C5.07238 9.16551 5.14477 9.23791 5.14477 9.32758H5.54477C5.54477 9.01699 5.29329 8.76551 4.9827 8.76551V9.16551ZM2.24822 10.7759C2.24822 11.0857 2.50041 11.3379 2.81029 11.3379V10.9379C2.72133 10.9379 2.64822 10.8648 2.64822 10.7759H2.24822ZM2.81029 10.2138C2.50041 10.2138 2.24822 10.466 2.24822 10.7759H2.64822C2.64822 10.6869 2.72133 10.6138 2.81029 10.6138V10.2138ZM3.37236 10.7759C3.37236 10.466 3.12017 10.2138 2.81029 10.2138V10.6138C2.89925 10.6138 2.97236 10.6869 2.97236 10.7759H3.37236ZM2.81029 11.3379C3.12017 11.3379 3.37236 11.0857 3.37236 10.7759H2.97236C2.97236 10.8648 2.89925 10.9379 2.81029 10.9379V11.3379ZM3.10572 8.44278H4.25862V8.04279H3.10572V8.44278ZM2.08621 9.16692C2.64643 9.16692 3.11719 8.80607 3.2941 8.30996L2.91734 8.17561C2.79432 8.52059 2.46881 8.76692 2.08621 8.76692V9.16692ZM0.8 7.88072C0.8 8.59014 1.37678 9.16692 2.08621 9.16692V8.76692C1.59769 8.76692 1.2 8.36923 1.2 7.88072H0.8ZM2.08621 6.59451C1.37678 6.59451 0.8 7.17129 0.8 7.88072H1.2C1.2 7.3922 1.59769 6.99451 2.08621 6.99451V6.59451ZM3.2941 7.45147C3.11719 6.95536 2.64643 6.59451 2.08621 6.59451V6.99451C2.46881 6.99451 2.79432 7.24085 2.91734 7.58582L3.2941 7.45147ZM4.25862 7.31865H3.10572V7.71865H4.25862V7.31865ZM4.82069 7.88072C4.82069 7.57013 4.56921 7.31865 4.25862 7.31865V7.71865C4.34829 7.71865 4.42069 7.79104 4.42069 7.88072H4.82069ZM4.25862 8.44278C4.56921 8.44278 4.82069 8.1913 4.82069 7.88072H4.42069C4.42069 7.97039 4.34829 8.04279 4.25862 8.04279V8.44278ZM1.92414 7.88072C1.92414 7.79175 1.99724 7.71865 2.08621 7.71865V7.31865C1.77633 7.31865 1.52414 7.57084 1.52414 7.88072H1.92414ZM2.08621 8.04279C1.99724 8.04279 1.92414 7.96968 1.92414 7.88072H1.52414C1.52414 8.19059 1.77633 8.44278 2.08621 8.44278V8.04279ZM2.24828 7.88072C2.24828 7.96968 2.17517 8.04279 2.08621 8.04279V8.44278C2.39608 8.44278 2.64828 8.19059 2.64828 7.88072H2.24828ZM2.08621 7.71865C2.17517 7.71865 2.24828 7.79175 2.24828 7.88072H2.64828C2.64828 7.57084 2.39608 7.31865 2.08621 7.31865V7.71865ZM17.8552 6.43246C17.8552 6.34279 17.9276 6.27039 18.0173 6.27039V5.87039C17.7067 5.87039 17.4552 6.12188 17.4552 6.43246H17.8552ZM18.0173 6.59453C17.9276 6.59453 17.8552 6.52213 17.8552 6.43246H17.4552C17.4552 6.74304 17.7067 6.99453 18.0173 6.99453V6.59453ZM18.7414 6.59453H18.0173V6.99453H18.7414V6.59453ZM18.856 6.54703C18.8256 6.57749 18.7845 6.59453 18.7414 6.59453V6.99453C18.8908 6.99453 19.0335 6.9352 19.1389 6.82988L18.856 6.54703ZM19.5829 5.82011L18.856 6.54703L19.1389 6.82988L19.8658 6.10295L19.5829 5.82011ZM20.1897 5.87039C20.056 5.87039 19.9288 5.83762 19.8107 5.78112L19.638 6.14194C19.8032 6.22096 19.9891 6.27039 20.1897 6.27039V5.87039ZM21.0759 4.98418C21.0759 5.4727 20.6782 5.87039 20.1897 5.87039V6.27039C20.8991 6.27039 21.4759 5.69361 21.4759 4.98418H21.0759ZM20.1897 4.09798C20.6782 4.09798 21.0759 4.49567 21.0759 4.98418H21.4759C21.4759 4.27476 20.8991 3.69798 20.1897 3.69798V4.09798ZM19.3035 4.98418C19.3035 4.49567 19.7012 4.09798 20.1897 4.09798V3.69798C19.4803 3.69798 18.9035 4.27476 18.9035 4.98418H19.3035ZM19.3928 5.36322C19.3363 5.24514 19.3035 5.11793 19.3035 4.98418H18.9035C18.9035 5.18484 18.9529 5.37073 19.032 5.53586L19.3928 5.36322ZM18.7329 6.21181L19.3538 5.59096L19.0709 5.30812L18.4501 5.92897L18.7329 6.21181ZM18.0173 6.27039H18.5915V5.87039H18.0173V6.27039ZM20.7518 4.98418C20.7518 4.67431 20.4996 4.42212 20.1897 4.42212V4.82212C20.2787 4.82212 20.3518 4.89522 20.3518 4.98418H20.7518ZM20.1897 5.54625C20.4996 5.54625 20.7518 5.29406 20.7518 4.98418H20.3518C20.3518 5.07315 20.2787 5.14625 20.1897 5.14625V5.54625ZM19.6276 4.98418C19.6276 5.29406 19.8798 5.54625 20.1897 5.54625V5.14625C20.1008 5.14625 20.0276 5.07315 20.0276 4.98418H19.6276ZM20.1897 4.42212C19.8798 4.42212 19.6276 4.67431 19.6276 4.98418H20.0276C20.0276 4.89522 20.1008 4.82212 20.1897 4.82212V4.42212ZM20.1897 9.48965C19.9891 9.48965 19.8032 9.53908 19.638 9.6181L19.8107 9.97892C19.9288 9.92242 20.056 9.88965 20.1897 9.88965V9.48965ZM21.4759 10.7759C21.4759 10.0664 20.8991 9.48965 20.1897 9.48965V9.88965C20.6782 9.88965 21.0759 10.2873 21.0759 10.7759H21.4759ZM20.1897 12.0621C20.8991 12.0621 21.4759 11.4853 21.4759 10.7759H21.0759C21.0759 11.2644 20.6782 11.6621 20.1897 11.6621V12.0621ZM18.9035 10.7759C18.9035 11.4853 19.4803 12.0621 20.1897 12.0621V11.6621C19.7012 11.6621 19.3035 11.2644 19.3035 10.7759H18.9035ZM19.032 10.2242C18.9529 10.3893 18.9035 10.5752 18.9035 10.7759H19.3035C19.3035 10.6421 19.3363 10.5149 19.3928 10.3968L19.032 10.2242ZM18.4501 9.83107L19.0709 10.4519L19.3538 10.1691L18.7329 9.54823L18.4501 9.83107ZM18.0173 9.88965H18.5915V9.48965H18.0173V9.88965ZM17.4552 9.32758C17.4552 9.63816 17.7067 9.88965 18.0173 9.88965V9.48965C17.9276 9.48965 17.8552 9.41725 17.8552 9.32758H17.4552ZM18.0173 8.76551C17.7067 8.76551 17.4552 9.01699 17.4552 9.32758H17.8552C17.8552 9.23791 17.9276 9.16551 18.0173 9.16551V8.76551ZM18.7414 8.76551H18.0173V9.16551H18.7414V8.76551ZM19.1389 8.93016C19.0335 8.82484 18.8908 8.76551 18.7414 8.76551V9.16551C18.7845 9.16551 18.8256 9.18255 18.856 9.21301L19.1389 8.93016ZM19.8658 9.65709L19.1389 8.93016L18.856 9.21301L19.5829 9.93993L19.8658 9.65709ZM20.1897 10.9379C20.1008 10.9379 20.0276 10.8648 20.0276 10.7759H19.6276C19.6276 11.0857 19.8798 11.3379 20.1897 11.3379V10.9379ZM20.3518 10.7759C20.3518 10.8648 20.2787 10.9379 20.1897 10.9379V11.3379C20.4996 11.3379 20.7518 11.0857 20.7518 10.7759H20.3518ZM20.1897 10.6138C20.2787 10.6138 20.3518 10.6869 20.3518 10.7759H20.7518C20.7518 10.466 20.4996 10.2138 20.1897 10.2138V10.6138ZM20.0276 10.7759C20.0276 10.6869 20.1008 10.6138 20.1897 10.6138V10.2138C19.8798 10.2138 19.6276 10.466 19.6276 10.7759H20.0276ZM20.0827 7.58582C20.2057 7.24085 20.5312 6.99451 20.9138 6.99451V6.59451C20.3536 6.59451 19.8828 6.95536 19.7059 7.45147L20.0827 7.58582ZM18.7414 7.71865H19.8943V7.31865H18.7414V7.71865ZM18.5793 7.88072C18.5793 7.79104 18.6517 7.71865 18.7414 7.71865V7.31865C18.4308 7.31865 18.1793 7.57013 18.1793 7.88072H18.5793ZM18.7414 8.04279C18.6517 8.04279 18.5793 7.97039 18.5793 7.88072H18.1793C18.1793 8.1913 18.4308 8.44278 18.7414 8.44278V8.04279ZM19.8943 8.04279H18.7414V8.44278H19.8943V8.04279ZM20.9138 8.76692C20.5312 8.76692 20.2057 8.52059 20.0827 8.17561L19.7059 8.30996C19.8828 8.80607 20.3536 9.16692 20.9138 9.16692V8.76692ZM21.8 7.88072C21.8 8.36923 21.4023 8.76692 20.9138 8.76692V9.16692C21.6232 9.16692 22.2 8.59014 22.2 7.88072H21.8ZM20.9138 6.99451C21.4023 6.99451 21.8 7.3922 21.8 7.88072H22.2C22.2 7.17129 21.6232 6.59451 20.9138 6.59451V6.99451ZM20.3517 7.88072C20.3517 8.19059 20.6039 8.44278 20.9138 8.44278V8.04279C20.8248 8.04279 20.7517 7.96968 20.7517 7.88072H20.3517ZM20.9138 7.31865C20.6039 7.31865 20.3517 7.57084 20.3517 7.88072H20.7517C20.7517 7.79175 20.8248 7.71865 20.9138 7.71865V7.31865ZM21.4759 7.88072C21.4759 7.57084 21.2237 7.31865 20.9138 7.31865V7.71865C21.0028 7.71865 21.0759 7.79175 21.0759 7.88072H21.4759ZM20.9138 8.44278C21.2237 8.44278 21.4759 8.19059 21.4759 7.88072H21.0759C21.0759 7.96968 21.0028 8.04279 20.9138 8.04279V8.44278ZM6.43092 8.44138C6.74134 8.44138 6.99299 8.18974 6.99299 7.87931H6.59299C6.59299 7.96882 6.52042 8.04138 6.43092 8.04138V8.44138ZM5.86885 7.87931C5.86885 8.18974 6.12049 8.44138 6.43092 8.44138V8.04138C6.34141 8.04138 6.26885 7.96882 6.26885 7.87931H5.86885ZM6.43092 7.31725C6.12049 7.31725 5.86885 7.56889 5.86885 7.87931H6.26885C6.26885 7.78981 6.34141 7.71724 6.43092 7.71724V7.31725ZM6.99299 7.87931C6.99299 7.56889 6.74134 7.31725 6.43092 7.31725V7.71724C6.52042 7.71724 6.59299 7.78981 6.59299 7.87931H6.99299Z" fill="#0169EF"/>
</svg>
