<svg width="320" height="52" viewBox="0 0 320 52" fill="none" xmlns="http://www.w3.org/2000/svg">
<path d="M26.4863 14.5649V19.3688C26.4863 19.6439 26.7093 19.8698 26.9873 19.8698H30.9167C31.1918 19.8698 31.4177 20.0928 31.4177 20.3708V24.3234C31.4177 24.5985 31.6407 24.8244 31.9186 24.8244H40.5073C42.7978 24.8244 44.6568 26.6805 44.6568 28.9739V30.8214C44.6568 33.1119 42.8007 34.9709 40.5073 34.9709H34.936C34.6609 34.9709 34.435 35.1939 34.435 35.4719V40.2961C34.435 40.5712 34.658 40.7971 34.936 40.7971H40.4639C45.9715 40.7971 50.4367 36.3319 50.4367 30.8243V28.9768C50.4367 23.4692 45.9715 19.004 40.4639 19.004H32.7902C32.5152 19.004 32.2893 18.781 32.2893 18.503V14.5736C32.2893 14.2985 32.0663 14.0726 31.7883 14.0726H26.9844C26.7093 14.0726 26.4834 14.2956 26.4834 14.5736L26.4863 14.5649Z" fill="#A14CFF"/>
<path d="M36.7634 27.1583H31.9595C31.6844 27.1583 31.4585 27.3813 31.4585 27.6593V31.5888C31.4585 31.8638 31.2355 32.0897 30.9576 32.0897H27.0049C26.7298 32.0897 26.504 32.3127 26.504 32.5907V41.1793C26.504 43.4698 24.6478 45.3289 22.3544 45.3289H20.507C18.2165 45.3289 16.3574 43.4727 16.3574 41.1793V35.608C16.3574 35.3329 16.1344 35.107 15.8565 35.107H11.0322C10.7571 35.107 10.5312 35.33 10.5312 35.608V41.1359C10.5312 46.6435 14.9964 51.1087 20.5041 51.1087H22.3515C27.8591 51.1087 32.3243 46.6435 32.3243 41.1359V33.4623C32.3243 33.1872 32.5473 32.9613 32.8253 32.9613H36.7547C37.0298 32.9613 37.2557 32.7383 37.2557 32.4604V27.6564C37.2557 27.3813 37.0327 27.1554 36.7547 27.1554L36.7634 27.1583Z" fill="#A14CFF"/>
<path d="M24.1701 37.4351V32.6312C24.1701 32.3561 23.9471 32.1302 23.6691 32.1302H19.7397C19.4646 32.1302 19.2387 31.9072 19.2387 31.6292V27.6766C19.2387 27.4015 19.0157 27.1756 18.7378 27.1756H10.1491C7.8586 27.1756 5.99955 25.3195 5.99955 23.0261V21.1786C5.99955 18.8881 7.8557 17.0291 10.1491 17.0291H15.7204C15.9955 17.0291 16.2214 16.8061 16.2214 16.5281V11.7039C16.2214 11.4288 15.9984 11.2029 15.7204 11.2029H10.1925C4.6849 11.2029 0.219727 15.6681 0.219727 21.1757V23.0232C0.219727 28.5308 4.6849 32.996 10.1925 32.996H17.8662C18.1412 32.996 18.3671 33.219 18.3671 33.497V37.4264C18.3671 37.7015 18.5901 37.9274 18.8681 37.9274H23.672C23.9471 37.9274 24.173 37.7044 24.173 37.4264L24.1701 37.4351Z" fill="#A14CFF"/>
<path d="M13.8936 24.8418H18.6976C18.9727 24.8418 19.1986 24.6188 19.1986 24.3408V20.4113C19.1986 20.1362 19.4215 19.9104 19.6995 19.9104H23.6522C23.9273 19.9104 24.1531 19.6874 24.1531 19.4094V10.8208C24.1531 8.53026 26.0093 6.67122 28.3027 6.67122H30.1501C32.4406 6.67122 34.2997 8.52736 34.2997 10.8208V16.3921C34.2997 16.6672 34.5226 16.8931 34.8006 16.8931H39.6249C39.9 16.8931 40.1258 16.6701 40.1258 16.3921V10.8642C40.1258 5.35656 35.6607 0.891388 30.153 0.891388H28.3056C22.7979 0.891388 18.3328 5.35656 18.3328 10.8642V18.5378C18.3328 18.8129 18.1098 19.0388 17.8318 19.0388H13.9023C13.6272 19.0388 13.4014 19.2617 13.4014 19.5397V24.3437C13.4014 24.6188 13.6243 24.8447 13.9023 24.8447L13.8936 24.8418Z" fill="#A14CFF"/>
<path d="M56.7812 21.891C56.7812 17.3564 60.2474 15.257 67.394 15.257C70.6024 15.257 73.0001 15.5987 75.8668 16.2415V20.7357C73.4692 20.2637 70.9875 19.9654 67.9065 19.9654C63.8844 19.9654 62.8998 20.4779 62.8998 21.6333C62.8998 23.0464 64.7386 23.4316 67.4345 23.7733C71.5841 24.2858 77.4044 25.0561 77.4044 30.5782C77.4044 35.3271 73.4663 37.4236 66.1488 37.4236C62.8969 37.4236 60.4153 37.1254 57.3343 36.5259V31.9913C59.9868 32.4198 62.6392 32.6747 65.8071 32.6747C69.6584 32.6747 71.2858 32.1621 71.2858 30.9633C71.2858 29.6805 69.9161 29.4228 66.6643 28.9102C63.2415 28.3977 56.7783 27.9691 56.7783 21.891H56.7812Z" fill="#31154E"/>
<path d="M90.843 45.8125C88.6191 45.8125 86.5197 45.6416 83.653 45.1696V40.7189C85.6221 41.0172 88.318 41.2315 90.287 41.2315C95.2068 41.2315 96.6634 39.6909 96.6634 36.8242V35.2403H96.3651C95.1229 36.5665 93.1972 37.4236 90.1162 37.4236C83.8267 37.4236 81.0439 34.5134 81.0439 28.0097V15.6421H87.1626V27.8388C87.1626 31.1341 88.4888 32.5878 91.8681 32.5878C95.2474 32.5878 96.6605 31.1312 96.6605 27.8388V15.6421H102.779V35.4545C102.779 42.6851 99.785 45.8096 90.8401 45.8096L90.843 45.8125Z" fill="#31154E"/>
<path d="M209.843 45.8124C207.619 45.8124 205.52 45.6416 202.653 45.1696V40.7189C204.622 41.0172 207.318 41.2314 209.287 41.2314C214.207 41.2314 215.663 39.6909 215.663 36.8242V35.2402H215.365C214.123 36.5665 212.197 37.4236 209.116 37.4236C202.827 37.4236 200.044 34.5134 200.044 28.0096V15.6421H206.163V27.8388C206.163 31.1341 207.489 32.5878 210.868 32.5878C214.247 32.5878 215.66 31.1312 215.66 27.8388V15.6421H221.779V35.4545C221.779 42.6851 218.785 45.8095 209.84 45.8095L209.843 45.8124Z" fill="#31154E"/>
<path d="M117.287 15.2599C124.903 15.2599 128.114 18.0397 128.114 24.4161V37.0385H121.995V24.5869C121.995 21.4625 120.669 20.0928 117.29 20.0928C113.911 20.0928 112.498 21.4625 112.498 24.5869V37.0385H106.379V24.4161C106.379 18.0397 109.587 15.2599 117.29 15.2599H117.287Z" fill="#31154E"/>
<path d="M151.179 28.4816H137.357C137.87 31.6061 139.755 32.7615 143.69 32.7615C145.874 32.7615 149.852 32.3329 151.821 31.9912V36.4419C148.526 37.0848 145.532 37.4265 143.091 37.4265C134.876 37.4265 131.108 34.218 131.108 26.5994V26.0869C131.108 18.5986 134.873 15.2599 142.535 15.2599C150.197 15.2599 153.533 18.9837 153.533 25.3601C153.533 28.14 153.148 28.4845 151.179 28.4845V28.4816ZM147.327 24.2887C147.284 21.5088 145.7 19.9248 142.535 19.9248C139.37 19.9248 137.742 21.2076 137.357 24.2887H147.327Z" fill="#31154E"/>
<path d="M162.819 23.2607V37.0385H156.7V23.2607C156.7 17.3129 158.713 15.2599 166.928 15.2599C168.512 15.2599 170.096 15.3467 171.636 15.561V20.3534C170.18 20.1391 168.384 20.0957 167.4 20.0957C163.334 20.0957 162.822 20.8225 162.822 23.2607H162.819Z" fill="#31154E"/>
<path d="M184.386 15.2599C192.216 15.2599 195.983 18.7695 195.983 26.2577V35.7151C195.983 42.7748 192.989 45.8153 184.088 45.8153C181.82 45.8153 179.724 45.6445 176.898 45.1725V40.6378C178.823 40.8955 181.519 41.1938 183.488 41.1938C188.408 41.1938 189.865 39.7807 189.865 36.83V35.2055H189.523C188.197 36.3174 186.398 37.4294 182.761 37.4294C176.171 37.4294 172.748 34.3049 172.748 26.6023V26.0898C172.748 18.6015 176.599 15.2628 184.389 15.2628L184.386 15.2599ZM184.386 32.5907C188.324 32.5907 189.865 30.9633 189.865 26.4286V26.2577C189.865 21.7231 188.324 20.0957 184.386 20.0957C180.448 20.0957 178.867 21.7202 178.867 26.2577V26.4286C178.867 30.9633 180.491 32.5907 184.386 32.5907Z" fill="#31154E"/>
<path d="M230.777 17.1H233.153L239.714 29.223L246.113 17.1H248.489V36H245.978V21.906L241.01 31.194C240.794 31.59 240.587 31.869 240.389 32.031C240.209 32.193 239.993 32.274 239.741 32.274H239.012L233.315 21.906V36H230.777V17.1ZM256.392 36.216C255.042 36.216 253.962 35.874 253.152 35.19C252.342 34.488 251.937 33.561 251.937 32.409V31.518C251.937 30.384 252.36 29.475 253.206 28.791C254.052 28.089 255.159 27.738 256.527 27.738H258.228C258.768 27.738 259.344 27.819 259.956 27.981C260.568 28.143 261.09 28.368 261.522 28.656V26.685C261.522 26.019 261.315 25.488 260.901 25.092C260.487 24.678 259.947 24.471 259.281 24.471H257.067C256.383 24.471 255.834 24.633 255.42 24.957C255.006 25.281 254.799 25.704 254.799 26.226H252.315C252.315 25.056 252.747 24.111 253.611 23.391C254.493 22.671 255.645 22.311 257.067 22.311H259.281C260.703 22.311 261.846 22.716 262.71 23.526C263.574 24.318 264.006 25.371 264.006 26.685V36H261.657V34.191C261.243 34.803 260.703 35.298 260.037 35.676C259.371 36.036 258.696 36.216 258.012 36.216H256.392ZM258.147 34.137C258.939 34.137 259.641 33.912 260.253 33.462C260.865 32.994 261.288 32.373 261.522 31.599V30.789C261.18 30.483 260.712 30.24 260.118 30.06C259.524 29.88 258.912 29.79 258.282 29.79H256.554C255.924 29.79 255.411 29.952 255.015 30.276C254.619 30.6 254.421 31.032 254.421 31.572V32.382C254.421 32.922 254.61 33.354 254.988 33.678C255.384 33.984 255.906 34.137 256.554 34.137H258.147ZM267.636 22.527H270.039V24.498C270.399 23.904 270.921 23.418 271.605 23.04C272.307 22.662 273.036 22.473 273.792 22.473H275.196V24.714H273.792C272.694 24.714 271.812 25.056 271.146 25.74C270.48 26.406 270.147 27.288 270.147 28.386V36H267.636V22.527ZM286.651 36L281.737 29.952L279.982 31.68V36H277.471V17.1H279.982V28.71L286.219 22.527H289.216L283.384 28.305L289.567 36H286.651ZM295.696 36.216C294.112 36.216 292.834 35.766 291.862 34.866C290.908 33.948 290.431 32.751 290.431 31.275V27.549C290.431 25.965 290.908 24.696 291.862 23.742C292.834 22.788 294.112 22.311 295.696 22.311H297.91C299.44 22.311 300.673 22.779 301.609 23.715C302.545 24.651 303.013 25.893 303.013 27.441V29.979H292.942V31.275C292.942 32.103 293.194 32.769 293.698 33.273C294.202 33.777 294.868 34.029 295.696 34.029H297.775C298.585 34.029 299.242 33.822 299.746 33.408C300.25 32.976 300.502 32.409 300.502 31.707H302.959C302.959 33.057 302.482 34.146 301.528 34.974C300.574 35.802 299.314 36.216 297.748 36.216H295.696ZM300.502 27.981V27.441C300.502 26.541 300.259 25.821 299.773 25.281C299.305 24.741 298.684 24.471 297.91 24.471H295.696C294.868 24.471 294.202 24.759 293.698 25.335C293.194 25.893 292.942 26.64 292.942 27.576V27.981H300.502ZM311.429 36C309.953 36 308.882 35.676 308.216 35.028C307.568 34.38 307.244 33.336 307.244 31.896V24.714H304.868V22.527H307.271V18.45H309.755V22.527H313.265V24.714H309.755V31.842C309.755 32.544 309.89 33.048 310.16 33.354C310.448 33.66 310.907 33.813 311.537 33.813H313.265V36H311.429Z" fill="#A14CFF"/>
</svg>
