<svg width="39" height="27" viewBox="0 0 39 27" fill="none" xmlns="http://www.w3.org/2000/svg">
<path fill-rule="evenodd" clip-rule="evenodd" d="M12.792 7.45888C12.792 3.61644 15.7495 0.5 19.396 0.5C23.0441 0.5 26 3.61644 26 7.45888V13.5958C26 17.44 23.0441 20.5547 19.396 20.5547C15.7495 20.5547 12.792 17.44 12.792 13.5958V7.45888ZM19.396 2.14383C16.6108 2.14383 14.352 4.52396 14.352 7.45888V13.5958C14.352 16.5308 16.6108 18.9109 19.396 18.9109C22.1812 18.9109 24.44 16.5308 24.44 13.5958V7.45888C24.44 4.52396 22.1812 2.14383 19.396 2.14383ZM10.66 12.3904C11.0906 12.3904 11.44 12.7585 11.44 13.2123V13.5958C11.44 18.2257 15.002 21.9794 19.396 21.9794C23.79 21.9794 27.352 18.226 27.352 13.5958V13.2123C27.352 12.7585 27.7014 12.3904 28.132 12.3904C28.5626 12.3904 28.912 12.7585 28.912 13.2123V13.5958C28.912 18.8579 25.0672 23.1713 20.176 23.5908V25.6781C20.176 26.1319 19.8266 26.5 19.396 26.5C18.9654 26.5 18.616 26.1319 18.616 25.6781V23.5908C13.7247 23.1713 9.88 18.8579 9.88 13.5958V13.2123C9.88 12.7585 10.2294 12.3904 10.66 12.3904ZM7.02 20.7739C6.58936 20.7739 6.24 20.4058 6.24 19.952V6.80135C6.24 6.34756 6.58937 5.97943 7.02 5.97943C7.45063 5.97943 7.8 6.34758 7.8 6.80135V19.952C7.8 20.4058 7.45063 20.7739 7.02 20.7739ZM3.9 18.0342C3.46936 18.0342 3.12 17.666 3.12 17.2123V9.54107C3.12 9.08728 3.46937 8.71915 3.9 8.71915C4.33063 8.71915 4.68 9.0873 4.68 9.54107V17.2123C4.68 17.6661 4.33063 18.0342 3.9 18.0342ZM31.2 19.952C31.2 20.4058 31.5494 20.7739 31.98 20.7739C32.4106 20.7739 32.76 20.4058 32.76 19.952V6.80135C32.76 6.34756 32.4106 5.97943 31.98 5.97943C31.5494 5.97943 31.2 6.34758 31.2 6.80135V19.952ZM35.1 18.0342C34.6694 18.0342 34.32 17.666 34.32 17.2123V9.54107C34.32 9.08728 34.6694 8.71915 35.1 8.71915C35.5306 8.71915 35.88 9.0873 35.88 9.54107V17.2123C35.88 17.6661 35.5306 18.0342 35.1 18.0342ZM39 11.1849C39 10.7311 38.6506 10.363 38.22 10.363C37.7894 10.363 37.44 10.7311 37.44 11.1849V15.5684C37.44 16.0222 37.7894 16.3904 38.22 16.3904C38.6506 16.3904 39 16.0222 39 15.5684V11.1849ZM0.78 16.3904C0.349357 16.3904 0 16.0222 0 15.5684V11.1849C0 10.7311 0.349373 10.363 0.78 10.363C1.21063 10.363 1.56 10.7311 1.56 11.1849V15.5684C1.56 16.0222 1.21063 16.3904 0.78 16.3904Z" fill="#0169EF"/>
</svg>
